<svg width="1536" height="1499" viewBox="0 0 1536 1499" xmlns="http://www.w3.org/2000/svg"><path d="M768 0c139.333 0 267.833 34.333 385.5 103 117.667 68.667 210.833 161.833 279.5 279.5s103 246.167 103 385.5c0 167.333-48.833 317.833-146.5 451.5-97.667 133.667-223.833 226.167-378.5 277.5-18 3.333-31.333 1-40-7-8.667-8-13-18-13-30 0-2 .167-27.5.5-76.5.333-49 .5-93.833.5-134.5 0-64.667-17.333-112-52-142 38-4 72.167-10 102.5-18s61.667-21 94-39 59.333-40.167 81-66.5 39.333-61.333 53-105c13.667-43.667 20.5-93.833 20.5-150.5 0-79.333-26.333-148-79-206 24.667-60.667 22-128.667-8-204-18.667-6-45.667-2.333-81 11s-66 28-92 44l-38 24c-62-17.333-126-26-192-26s-130 8.667-192 26c-10.667-7.333-24.833-16.333-42.5-27-17.667-10.667-45.5-23.5-83.5-38.5S383.667 312 365 318c-30 75.333-32.667 143.333-8 204-52.667 58-79 126.667-79 206 0 56.667 6.833 106.667 20.5 150s31.167 78.333 52.5 105 48.167 49 80.5 67 63.667 31 94 39 64.5 14 102.5 18c-26 24-42.333 58.333-49 103-14 6.667-29 11.667-45 15s-35 5-57 5-43.833-7.167-65.5-21.5-40.167-35.167-55.5-62.5c-12.667-21.333-28.833-38.667-48.5-52-19.667-13.333-36.167-21.333-49.5-24l-20-3c-14 0-23.667 1.5-29 4.5-5.333 3-7 6.833-5 11.5s5 9.333 9 14 8.333 8.667 13 12l7 5c14.667 6.667 29.167 19.333 43.5 38 14.333 18.667 24.833 35.667 31.5 51l10 23c8.667 25.333 23.333 45.833 44 61.5 20.667 15.667 43 25.667 67 30 24 4.333 47.167 6.667 69.5 7 22.333.333 40.833-.833 55.5-3.5l23-4c0 25.333.167 54.833.5 88.5.333 33.667.5 51.833.5 54.5 0 12-4.333 22-13 30s-22 10.333-40 7c-154.667-51.333-280.833-143.833-378.5-277.5C48.833 1085.833 0 935.333 0 768c0-139.333 34.333-267.833 103-385.5C171.667 264.833 264.833 171.667 382.5 103S628.667 0 768 0zM291 1103c2-4.667-.333-8.667-7-12-6.667-2-11-1.333-13 2-2 4.667.333 8.667 7 12 6 4 10.333 3.333 13-2zm31 34c4.667-3.333 4-8.667-2-16-6.667-6-12-7-16-3-4.667 3.333-4 8.667 2 16 6.667 6.667 12 7.667 16 3zm30 45c6-4.667 6-11 0-19-5.333-8.667-11-10.667-17-6-6 3.333-6 9.333 0 18s11.667 11 17 7zm42 42c5.333-5.333 4-11.667-4-19-8-8-14.667-9-20-3-6 5.333-4.667 11.667 4 19 8 8 14.667 9 20 3zm57 25c2-7.333-2.333-12.667-13-16-10-2.667-16.333-.333-19 7-2.667 7.333 1.667 12.333 13 15 10 4 16.333 2 19-6zm63 5c0-8.667-5.667-12.333-17-11-10.667 0-16 3.667-16 11 0 8.667 5.667 12.333 17 11 10.667 0 16-3.667 16-11zm58-10c-1.333-7.333-7.333-10.333-18-9-10.667 2-15.333 7-14 15 1.333 8 7.333 10.667 18 8s15.333-7.333 14-14z" fill="#000" fill-rule="nonzero"/></svg>